<svg 
 xmlns="http://www.w3.org/2000/svg"
 xmlns:xlink="http://www.w3.org/1999/xlink"
 width="26px" height="26px">
<path fill-rule="evenodd"  fill="rgb(38, 166, 209)"
 d="M12.1000,0.200 C20.069,0.200 25.800,5.931 25.800,12.1000 C25.800,20.069 20.069,25.800 12.1000,25.800 C5.931,25.800 0.200,20.069 0.200,12.1000 C0.200,5.931 5.931,0.200 12.1000,0.200 Z"/>
<path fill-rule="evenodd"  fill="rgb(255, 255, 255)"
 d="M21.002,8.823 C20.443,9.064 19.842,9.227 19.210,9.300 C19.855,8.925 20.349,8.333 20.582,7.625 C19.979,7.972 19.312,8.224 18.601,8.360 C18.032,7.771 17.222,7.404 16.325,7.404 C14.602,7.404 13.205,8.759 13.205,10.432 C13.205,10.668 13.233,10.899 13.286,11.121 C10.694,10.995 8.395,9.789 6.856,7.957 C6.588,8.405 6.434,8.925 6.434,9.479 C6.434,10.530 6.985,11.457 7.822,11.1000 C7.311,11.983 6.829,11.848 6.409,11.621 C6.409,11.634 6.409,11.646 6.409,11.659 C6.409,13.126 7.484,14.349 8.911,14.628 C8.649,14.697 8.374,14.734 8.089,14.734 C7.888,14.734 7.693,14.715 7.502,14.679 C7.899,15.882 9.051,16.757 10.416,16.782 C9.348,17.594 8.004,18.078 6.542,18.078 C6.290,18.078 6.042,18.063 5.798,18.035 C7.179,18.895 8.818,19.396 10.580,19.396 C16.317,19.396 19.454,14.783 19.454,10.782 C19.454,10.651 19.452,10.519 19.446,10.390 C20.055,9.964 20.584,9.430 21.002,8.823 Z"/>
</svg>