<svg 
 xmlns="http://www.w3.org/2000/svg"
 xmlns:xlink="http://www.w3.org/1999/xlink"
 width="26px" height="26px">
<path fill-rule="evenodd"  fill="rgb(63, 114, 155)"
 d="M12.1000,0.200 C20.069,0.200 25.800,5.930 25.800,12.1000 C25.800,20.069 20.069,25.800 12.1000,25.800 C5.931,25.800 0.200,20.069 0.200,12.1000 C0.200,5.930 5.931,0.200 12.1000,0.200 Z"/>
<path fill-rule="evenodd"  fill="rgb(255, 255, 255)"
 d="M17.418,5.798 L8.582,5.798 C7.047,5.798 5.798,7.046 5.798,8.581 L5.798,11.521 L5.798,17.418 C5.798,18.953 7.047,20.201 8.582,20.201 L17.418,20.201 C18.953,20.201 20.202,18.953 20.202,17.418 L20.202,11.521 L20.202,8.581 C20.202,7.046 18.953,5.798 17.418,5.798 ZM18.295,7.408 L18.610,7.407 L18.610,7.717 L18.610,9.798 L16.202,9.806 L16.194,7.415 L18.295,7.408 ZM12.1000,10.590 C14.997,10.590 15.410,12.465 15.410,13.000 C15.410,14.327 14.328,15.409 12.1000,15.409 C11.671,15.409 10.590,14.327 10.590,13.000 C10.590,12.465 11.002,10.590 12.1000,10.590 ZM18.624,17.243 C18.624,18.005 18.004,18.623 17.243,18.623 L8.732,18.623 C7.970,18.623 7.351,18.005 7.351,17.243 L7.351,11.397 L9.351,11.397 C9.166,11.853 9.061,12.477 9.061,13.000 C9.061,15.171 10.828,16.939 12.1000,16.939 C15.172,16.939 16.938,15.171 16.938,13.000 C16.938,12.477 16.833,11.853 16.648,11.397 L18.624,11.397 L18.624,17.243 Z"/>
</svg>