<svg 
 xmlns="http://www.w3.org/2000/svg"
 xmlns:xlink="http://www.w3.org/1999/xlink"
 width="26px" height="26px">
<path fill-rule="evenodd"  fill="rgb(14, 118, 168)"
 d="M12.1000,0.200 C20.069,0.200 25.800,5.930 25.800,12.1000 C25.800,20.069 20.069,25.800 12.1000,25.800 C5.931,25.800 0.200,20.069 0.200,12.1000 C0.200,5.930 5.931,0.200 12.1000,0.200 Z"/>
<path fill-rule="evenodd"  fill="rgb(255, 255, 255)"
 d="M17.008,17.787 L17.008,13.431 C17.008,12.537 16.750,11.643 15.699,11.643 C14.647,11.643 13.808,12.537 13.808,13.452 L13.808,17.787 L11.402,17.787 L11.402,9.773 L13.808,9.773 L13.808,10.884 C14.546,9.946 15.587,9.522 16.750,9.522 C17.914,9.522 19.406,10.102 19.406,13.253 L19.406,17.787 L17.008,17.787 ZM7.412,9.797 L9.809,9.797 L9.809,17.787 L7.412,17.787 L7.412,9.797 ZM8.600,8.1000 C7.937,8.1000 7.400,8.462 7.400,7.800 C7.400,7.137 7.937,6.600 8.600,6.600 C9.263,6.600 9.800,7.137 9.800,7.800 C9.800,8.462 9.263,8.1000 8.600,8.1000 Z"/>
</svg>