<svg 
 xmlns="http://www.w3.org/2000/svg"
 xmlns:xlink="http://www.w3.org/1999/xlink"
 width="26px" height="26px">
<path fill-rule="evenodd"  fill="rgb(59, 89, 152)"
 d="M12.1000,0.200 C20.069,0.200 25.800,5.931 25.800,12.1000 C25.800,20.069 20.069,25.800 12.1000,25.800 C5.931,25.800 0.200,20.069 0.200,12.1000 C0.200,5.931 5.931,0.200 12.1000,0.200 Z"/>
<path fill-rule="evenodd"  fill="rgb(255, 255, 255)"
 d="M14.558,9.011 L16.208,9.011 L16.208,6.574 L14.269,6.574 L14.269,6.584 C11.920,6.666 11.438,7.987 11.396,9.375 L11.391,9.375 L11.391,10.592 L9.792,10.592 L9.792,12.978 L11.391,12.978 L11.391,19.375 L13.803,19.375 L13.803,12.978 L15.778,12.978 L16.158,10.592 L13.803,10.592 L13.803,9.856 C13.803,9.388 14.114,9.011 14.558,9.011 Z"/>
</svg>