<svg 
 xmlns="http://www.w3.org/2000/svg"
 xmlns:xlink="http://www.w3.org/1999/xlink"
 width="26px" height="26px">
<path fill-rule="evenodd"  fill="rgb(134, 201, 239)"
 d="M12.1000,0.200 C20.069,0.200 25.800,5.931 25.800,12.1000 C25.800,20.069 20.069,25.800 12.1000,25.800 C5.931,25.800 0.200,20.069 0.200,12.1000 C0.200,5.931 5.931,0.200 12.1000,0.200 Z"/>
<path fill-rule="evenodd"  fill="rgb(255, 255, 255)"
 d="M5.800,10.599 C6.997,9.644 8.699,7.546 10.026,7.546 C11.352,7.546 11.677,9.111 11.858,10.532 C12.040,11.952 12.562,15.059 13.262,15.059 C13.964,15.059 15.564,12.311 15.473,11.249 C15.382,10.188 14.225,10.347 13.588,10.652 C14.173,8.528 15.525,7.400 17.254,7.400 C18.983,7.400 19.400,8.621 19.400,10.121 C19.400,12.404 14.771,19.399 11.976,19.399 C10.246,19.399 9.817,16.851 9.467,15.590 C9.115,14.329 8.426,11.023 7.620,10.811 C7.307,10.758 6.424,11.461 6.424,11.461 L5.800,10.599 Z"/>
</svg>